<?xml version="1.0" encoding="UTF-8"?>
<svg width="40px" height="24px" viewBox="0 0 24 24" version="1.1" xmlns="http://www.w3.org/2000/svg" xmlns:xlink="http://www.w3.org/1999/xlink">
    <g id="search_icon" stroke="none" stroke-width="1" fill="none" fill-rule="evenodd" opacity="0.300000012">
        <g id="Group-9" transform="translate(3.000000, 3.000000)" fill="#000000">
            <g id="Group-5">
                <path d="M12.8985699,13.9039321 C11.6012306,14.9769163 9.93675302,15.6216797 8.12167973,15.6216797 C3.97953687,15.6216797 0.621679728,12.2638226 0.621679728,8.12167973 C0.621679728,3.97953687 3.97953687,0.621679728 8.12167973,0.621679728 C12.2638226,0.621679728 15.6216797,3.97953687 15.6216797,8.12167973 C15.6216797,9.98504506 14.9421506,11.6896946 13.817383,13.0013376 L17.7187506,16.9027053 L16.8284313,17.8337934 L12.8985699,13.9039321 Z M14.4216797,8.12167973 C14.4216797,4.64227857 11.6010809,1.82167973 8.12167973,1.82167973 C4.64227857,1.82167973 1.82167973,4.64227857 1.82167973,8.12167973 C1.82167973,11.6010809 4.64227857,14.4216797 8.12167973,14.4216797 C11.6010809,14.4216797 14.4216797,11.6010809 14.4216797,8.12167973 Z" id="Combined-Shape"></path>
            </g>
        </g>
    </g>
</svg>
