<svg xmlns="http://www.w3.org/2000/svg" width="83" height="83" viewBox="0 0 83 83">
    <path fill="#0A0203"
        d="M0 42.556c0 18.805 11.894 34.738 28.383 40.37.26.055.482.074.704.074 1.538 0 2.13-1.13 2.13-2.112 0-1.019-.036-3.687-.055-7.244-1.556.352-2.946.5-4.187.5-7.985 0-9.8-6.206-9.8-6.206-1.89-4.91-4.614-6.225-4.614-6.225-3.612-2.539-.018-2.613.26-2.613 4.186.371 6.373 4.41 6.373 4.41 2.075 3.631 4.854 4.65 7.336 4.65 1.946 0 3.706-.63 4.743-1.112.37-2.742 1.445-4.613 2.631-5.687-9.208-1.075-18.897-4.725-18.897-21.028 0-4.65 1.612-8.449 4.26-11.412-.425-1.075-1.852-5.41.409-11.265 0 0 .296-.093.926-.093 1.5 0 4.89.575 10.486 4.465 3.316-.945 6.855-1.408 10.393-1.426 3.52.018 7.078.481 10.394 1.426 5.595-3.89 8.986-4.465 10.486-4.465.63 0 .926.093.926.093 2.26 5.854.834 10.19.408 11.265 2.65 2.982 4.261 6.78 4.261 11.412 0 16.34-9.708 19.935-18.953 20.99 1.482 1.316 2.816 3.91 2.816 7.875 0 5.687-.055 10.282-.055 11.671 0 1 .574 2.131 2.112 2.131.222 0 .482-.019.74-.074C71.125 77.294 83 61.342 83 42.556 83 19.064 64.418 0 41.5 0S0 19.064 0 42.556z">
    </path>
</svg>