<svg xmlns="http://www.w3.org/2000/svg" width="83" height="83" viewBox="0 0 83 83">
    <circle fill="#ffffff" cx="41.5" cy="41.5" r="40"></circle>
    <path fill="#2A9CD5"
        d="M41.5 0C18.58 0 .002 18.58.002 41.5S18.58 83 41.5 83c22.92 0 41.498-18.58 41.498-41.5S64.42 0 41.5 0zm22.848 54.434c-1.072 1-2.912-.09-4.68-2.537a26.78 26.78 0 0 1-2.93 5.7c2.501.893 4.109 2.286 4.109 3.858 0 2.716-4.806 4.913-10.736 4.913-3.52 0-6.628-.768-8.593-1.965-1.947 1.197-5.074 1.965-8.593 1.965-5.93 0-10.736-2.197-10.736-4.913 0-1.554 1.608-2.965 4.109-3.859a25.975 25.975 0 0 1-2.93-5.699c-1.768 2.43-3.608 3.538-4.68 2.537-1.465-1.375-.911-6.235 1.268-10.844.5-1.054 1.036-2 1.59-2.822.303-13.399 9.128-24.154 19.954-24.154h.036c10.825 0 19.65 10.737 19.954 24.154.554.821 1.09 1.768 1.59 2.822 2.161 4.61 2.733 9.469 1.268 10.844z">
    </path>
</svg>