<svg xmlns="http://www.w3.org/2000/svg" width="83" height="83" viewBox="0 0 83 83">
    <circle fill="#ffffff" cx="41.5" cy="41.5" r="40"></circle>
    <path fill="#51C332"
        d="M46.977 41.466c-.947 0-1.893.879-1.893 1.961 0 .879.946 1.758 1.893 1.758 1.42 0 2.434-.88 2.434-1.758 0-1.082-1.014-1.96-2.434-1.96zm-6.22-9.128c1.487 0 2.434-.946 2.434-2.367 0-1.487-.947-2.366-2.435-2.366-1.42 0-2.772.879-2.772 2.366 0 1.421 1.353 2.367 2.772 2.367zM41.5 0C18.58 0 0 18.58 0 41.5S18.58 83 41.5 83 83 64.42 83 41.5 64.42 0 41.5 0zm-7.843 52.014c-2.502 0-4.328-.405-6.694-1.082l-6.83 3.449 1.962-5.815c-4.8-3.38-7.64-7.64-7.64-12.847 0-9.196 8.654-16.228 19.202-16.228 9.33 0 17.648 5.545 19.27 13.389a9.36 9.36 0 0 0-1.825-.203c-9.196 0-16.295 6.896-16.295 15.213 0 1.42.202 2.704.54 4.057-.54.067-1.15.067-1.69.067zm28.196 6.626l1.352 4.869-5.14-2.908c-1.96.406-3.853 1.014-5.814 1.014-9.06 0-16.228-6.22-16.228-13.928 0-7.708 7.168-13.929 16.228-13.929 8.587 0 16.295 6.22 16.295 13.929 0 4.327-2.907 8.18-6.693 10.953zM27.369 27.605c-1.42 0-2.908.879-2.908 2.366 0 1.42 1.488 2.367 2.908 2.367 1.352 0 2.434-.946 2.434-2.367 0-1.487-1.082-2.366-2.434-2.366zm30.224 13.861c-1.015 0-1.894.879-1.894 1.961 0 .879.88 1.758 1.894 1.758 1.352 0 2.366-.88 2.366-1.758 0-1.082-1.014-1.96-2.366-1.96z">
    </path>
</svg>