<svg width="50" height="50"><g fill="none" fill-rule="evenodd"><circle fill="#F8E71C" cx="25" cy="25" r="10"></circle><g transform="translate(10 4)" fill="#FFA42E"><rect transform="rotate(45 2.5 8.5)" y="8" width="5" height="1" rx="0.5"></rect><rect transform="rotate(137 26.5 9.5)" x="24" y="9" width="5" height="1" rx="0.5"></rect><rect transform="rotate(-90 14.5 4)" x="10.5" y="2.5" width="8" height="3" rx="1.5"></rect></g><g transform="matrix(1 0 0 -1 10 46)" fill="#FFA42E"><rect transform="rotate(45 2.5 8.5)" y="8" width="5" height="1" rx="0.5"></rect><rect transform="rotate(137 26.5 9.5)" x="24" y="9" width="5" height="1" rx="0.5"></rect><rect transform="rotate(-90 14.5 4)" x="10.5" y="2.5" width="8" height="3" rx="1.5"></rect></g><rect fill="#FFA42E" x="4" y="22" width="8" height="3" rx="1.5"></rect><rect fill="#FFA42E" x="38" y="22" width="8" height="3" rx="1.5"></rect></g></svg>